<svg xmlns="http://www.w3.org/2000/svg" xmlns:xlink="http://www.w3.org/1999/xlink" width="1024" zoomAndPan="magnify" viewBox="0 0 768 576" height="768" preserveAspectRatio="xMidYMid meet" version="1.0"><defs><g/><clipPath id="ac284b3849"><path d="M 188.578125 150 L 563 150 L 563 506.792969 L 188.578125 506.792969 Z M 188.578125 150 " clip-rule="nonzero"/></clipPath><clipPath id="7e7824ab4e"><path d="M 67 128 L 314 128 L 314 356.792969 L 67 356.792969 Z M 67 128 " clip-rule="nonzero"/></clipPath><clipPath id="b4b35a1fed"><path d="M 0.578125 3 L 247 3 L 247 233 L 0.578125 233 Z M 0.578125 3 " clip-rule="nonzero"/></clipPath><clipPath id="1a48e7910c"><rect x="0" width="375" y="0" height="357"/></clipPath></defs><g clip-path="url(#ac284b3849)"><g transform="matrix(1, 0, 0, 1, 188, 150)"><g clip-path="url(#1a48e7910c)"><g clip-path="url(#7e7824ab4e)"><path fill="#4ce278" d="M 128.335938 128.144531 C 91.957031 149.476562 67.511719 188.984375 67.511719 234.15625 C 67.511719 301.933594 122.539062 356.960938 190.316406 356.960938 C 257.359375 356.960938 311.925781 303.117188 313.097656 236.351562 C 294.90625 247.019531 273.71875 253.140625 251.117188 253.140625 C 183.339844 253.140625 128.316406 198.113281 128.316406 130.335938 C 128.316406 129.605469 128.320312 128.875 128.335938 128.144531 Z M 128.335938 128.144531 " fill-opacity="1" fill-rule="evenodd"/></g><path fill="#16a349" d="M 190.304688 16.78125 C 226.96875 -4.058594 273.40625 -5.472656 312.527344 17.117188 C 371.222656 51.003906 391.363281 126.171875 357.476562 184.867188 C 323.953125 242.929688 250.039062 263.265625 191.632812 230.894531 C 209.96875 220.476562 225.863281 205.1875 237.164062 185.613281 C 271.050781 126.917969 250.910156 51.75 192.214844 17.863281 C 191.582031 17.496094 190.945312 17.136719 190.304688 16.78125 Z M 190.304688 16.78125 " fill-opacity="1" fill-rule="evenodd"/><g clip-path="url(#b4b35a1fed)"><path fill="#8bc441" d="M 61.457031 232.625 C 25.078125 211.292969 0.636719 171.78125 0.636719 126.609375 C 0.636719 58.832031 55.660156 3.808594 123.4375 3.808594 C 190.480469 3.808594 245.050781 57.652344 246.222656 124.414062 C 228.027344 113.746094 206.84375 107.628906 184.238281 107.628906 C 116.464844 107.628906 61.4375 162.652344 61.4375 230.429688 C 61.4375 231.160156 61.445312 231.890625 61.457031 232.625 Z M 61.457031 232.625 " fill-opacity="1" fill-rule="evenodd"/></g></g></g></g><g fill="#111828" fill-opacity="1"><g transform="translate(221.053248, 225.3827)"><g><path d="M 1.390625 0 L 1.390625 -12.875 L 10 -12.875 L 10 -11.03125 L 3.671875 -11.03125 L 3.671875 -7.46875 L 9.625 -7.46875 L 9.625 -5.625 L 3.671875 -5.625 L 3.671875 -1.84375 L 10 -1.84375 L 10 0 Z M 1.390625 0 "/></g></g></g><g fill="#111828" fill-opacity="1"><g transform="translate(231.812056, 225.3827)"><g><path d="M 6.453125 -9.359375 C 8.628906 -9.359375 9.71875 -8.109375 9.71875 -5.609375 L 9.71875 0 L 7.46875 0 L 7.46875 -5.5 C 7.46875 -6.21875 7.328125 -6.742188 7.046875 -7.078125 C 6.773438 -7.410156 6.347656 -7.578125 5.765625 -7.578125 C 5.078125 -7.578125 4.519531 -7.351562 4.09375 -6.90625 C 3.675781 -6.46875 3.46875 -5.890625 3.46875 -5.171875 L 3.46875 0 L 1.234375 0 L 1.234375 -6.546875 C 1.234375 -7.503906 1.179688 -8.363281 1.078125 -9.125 L 3.203125 -9.125 L 3.359375 -7.625 C 3.671875 -8.175781 4.09375 -8.601562 4.625 -8.90625 C 5.164062 -9.207031 5.773438 -9.359375 6.453125 -9.359375 Z M 6.453125 -9.359375 "/></g></g></g><g fill="#111828" fill-opacity="1"><g transform="translate(242.715517, 225.3827)"><g><path d="M 7.625 -9.109375 L 9.875 -9.109375 L 5.875 0 L 3.90625 0 L -0.03125 -9.109375 L 2.328125 -9.109375 L 4.953125 -2.5625 Z M 7.625 -9.109375 "/></g></g></g><g fill="#111828" fill-opacity="1"><g transform="translate(252.534055, 225.3827)"><g><path d="M 1.234375 0 L 1.234375 -9.125 L 3.46875 -9.125 L 3.46875 0 Z M 1.09375 -13.28125 L 3.609375 -13.28125 L 3.609375 -11.046875 L 1.09375 -11.046875 Z M 1.09375 -13.28125 "/></g></g></g><g fill="#111828" fill-opacity="1"><g transform="translate(257.253461, 225.3827)"><g><path d="M 6.140625 -9.34375 C 6.492188 -9.34375 6.796875 -9.296875 7.046875 -9.203125 L 7.03125 -7.140625 C 6.644531 -7.296875 6.25 -7.375 5.84375 -7.375 C 5.070312 -7.375 4.484375 -7.148438 4.078125 -6.703125 C 3.671875 -6.253906 3.46875 -5.664062 3.46875 -4.9375 L 3.46875 0 L 1.234375 0 L 1.234375 -6.546875 C 1.234375 -7.503906 1.179688 -8.363281 1.078125 -9.125 L 3.203125 -9.125 L 3.375 -7.515625 C 3.601562 -8.109375 3.960938 -8.5625 4.453125 -8.875 C 4.953125 -9.1875 5.515625 -9.34375 6.140625 -9.34375 Z M 6.140625 -9.34375 "/></g></g></g><g fill="#111828" fill-opacity="1"><g transform="translate(264.341611, 225.3827)"><g><path d="M 5.375 0.140625 C 4.445312 0.140625 3.628906 -0.0507812 2.921875 -0.4375 C 2.210938 -0.820312 1.664062 -1.367188 1.28125 -2.078125 C 0.90625 -2.796875 0.71875 -3.640625 0.71875 -4.609375 C 0.71875 -5.578125 0.90625 -6.414062 1.28125 -7.125 C 1.664062 -7.84375 2.210938 -8.394531 2.921875 -8.78125 C 3.628906 -9.164062 4.445312 -9.359375 5.375 -9.359375 C 6.289062 -9.359375 7.097656 -9.164062 7.796875 -8.78125 C 8.492188 -8.394531 9.03125 -7.84375 9.40625 -7.125 C 9.789062 -6.414062 9.984375 -5.578125 9.984375 -4.609375 C 9.984375 -3.640625 9.789062 -2.796875 9.40625 -2.078125 C 9.03125 -1.367188 8.492188 -0.820312 7.796875 -0.4375 C 7.097656 -0.0507812 6.289062 0.140625 5.375 0.140625 Z M 5.34375 -1.625 C 6.125 -1.625 6.710938 -1.875 7.109375 -2.375 C 7.515625 -2.875 7.71875 -3.617188 7.71875 -4.609375 C 7.71875 -5.585938 7.507812 -6.332031 7.09375 -6.84375 C 6.6875 -7.351562 6.113281 -7.609375 5.375 -7.609375 C 4.613281 -7.609375 4.023438 -7.351562 3.609375 -6.84375 C 3.203125 -6.332031 3 -5.585938 3 -4.609375 C 3 -3.617188 3.203125 -2.875 3.609375 -2.375 C 4.015625 -1.875 4.59375 -1.625 5.34375 -1.625 Z M 5.34375 -1.625 "/></g></g></g><g fill="#111828" fill-opacity="1"><g transform="translate(275.046173, 225.3827)"><g><path d="M 6.453125 -9.359375 C 8.628906 -9.359375 9.71875 -8.109375 9.71875 -5.609375 L 9.71875 0 L 7.46875 0 L 7.46875 -5.5 C 7.46875 -6.21875 7.328125 -6.742188 7.046875 -7.078125 C 6.773438 -7.410156 6.347656 -7.578125 5.765625 -7.578125 C 5.078125 -7.578125 4.519531 -7.351562 4.09375 -6.90625 C 3.675781 -6.46875 3.46875 -5.890625 3.46875 -5.171875 L 3.46875 0 L 1.234375 0 L 1.234375 -6.546875 C 1.234375 -7.503906 1.179688 -8.363281 1.078125 -9.125 L 3.203125 -9.125 L 3.359375 -7.625 C 3.671875 -8.175781 4.09375 -8.601562 4.625 -8.90625 C 5.164062 -9.207031 5.773438 -9.359375 6.453125 -9.359375 Z M 6.453125 -9.359375 "/></g></g></g><g fill="#111828" fill-opacity="1"><g transform="translate(285.949634, 225.3827)"><g><path d="M 12 -9.359375 C 13.039062 -9.359375 13.8125 -9.046875 14.3125 -8.421875 C 14.820312 -7.804688 15.078125 -6.867188 15.078125 -5.609375 L 15.078125 0 L 12.8125 0 L 12.8125 -5.53125 C 12.8125 -6.25 12.691406 -6.769531 12.453125 -7.09375 C 12.222656 -7.414062 11.835938 -7.578125 11.296875 -7.578125 C 10.671875 -7.578125 10.179688 -7.351562 9.828125 -6.90625 C 9.472656 -6.46875 9.296875 -5.863281 9.296875 -5.09375 L 9.296875 0 L 7.03125 0 L 7.03125 -5.53125 C 7.03125 -6.238281 6.90625 -6.753906 6.65625 -7.078125 C 6.414062 -7.410156 6.03125 -7.578125 5.5 -7.578125 C 4.875 -7.578125 4.378906 -7.351562 4.015625 -6.90625 C 3.648438 -6.46875 3.46875 -5.863281 3.46875 -5.09375 L 3.46875 0 L 1.234375 0 L 1.234375 -6.546875 C 1.234375 -7.503906 1.179688 -8.363281 1.078125 -9.125 L 3.203125 -9.125 L 3.359375 -7.6875 C 3.628906 -8.226562 4.015625 -8.640625 4.515625 -8.921875 C 5.015625 -9.210938 5.585938 -9.359375 6.234375 -9.359375 C 7.628906 -9.359375 8.539062 -8.78125 8.96875 -7.625 C 9.257812 -8.164062 9.671875 -8.585938 10.203125 -8.890625 C 10.742188 -9.203125 11.34375 -9.359375 12 -9.359375 Z M 12 -9.359375 "/></g></g></g><g fill="#111828" fill-opacity="1"><g transform="translate(302.205371, 225.3827)"><g><path d="M 9.21875 -4.453125 L 2.921875 -4.453125 C 2.972656 -3.472656 3.21875 -2.75 3.65625 -2.28125 C 4.101562 -1.820312 4.757812 -1.59375 5.625 -1.59375 C 6.625 -1.59375 7.550781 -1.914062 8.40625 -2.5625 L 9.0625 -1.015625 C 8.625 -0.660156 8.085938 -0.378906 7.453125 -0.171875 C 6.828125 0.0351562 6.1875 0.140625 5.53125 0.140625 C 4.039062 0.140625 2.863281 -0.28125 2 -1.125 C 1.144531 -1.96875 0.71875 -3.125 0.71875 -4.59375 C 0.71875 -5.519531 0.90625 -6.34375 1.28125 -7.0625 C 1.65625 -7.789062 2.179688 -8.351562 2.859375 -8.75 C 3.535156 -9.15625 4.300781 -9.359375 5.15625 -9.359375 C 6.40625 -9.359375 7.394531 -8.953125 8.125 -8.140625 C 8.851562 -7.328125 9.21875 -6.210938 9.21875 -4.796875 Z M 5.203125 -7.734375 C 4.597656 -7.734375 4.101562 -7.554688 3.71875 -7.203125 C 3.34375 -6.847656 3.101562 -6.332031 3 -5.65625 L 7.25 -5.65625 C 7.175781 -6.34375 6.96875 -6.859375 6.625 -7.203125 C 6.28125 -7.554688 5.804688 -7.734375 5.203125 -7.734375 Z M 5.203125 -7.734375 "/></g></g></g><g fill="#111828" fill-opacity="1"><g transform="translate(312.114317, 225.3827)"><g><path d="M 6.453125 -9.359375 C 8.628906 -9.359375 9.71875 -8.109375 9.71875 -5.609375 L 9.71875 0 L 7.46875 0 L 7.46875 -5.5 C 7.46875 -6.21875 7.328125 -6.742188 7.046875 -7.078125 C 6.773438 -7.410156 6.347656 -7.578125 5.765625 -7.578125 C 5.078125 -7.578125 4.519531 -7.351562 4.09375 -6.90625 C 3.675781 -6.46875 3.46875 -5.890625 3.46875 -5.171875 L 3.46875 0 L 1.234375 0 L 1.234375 -6.546875 C 1.234375 -7.503906 1.179688 -8.363281 1.078125 -9.125 L 3.203125 -9.125 L 3.359375 -7.625 C 3.671875 -8.175781 4.09375 -8.601562 4.625 -8.90625 C 5.164062 -9.207031 5.773438 -9.359375 6.453125 -9.359375 Z M 6.453125 -9.359375 "/></g></g></g><g fill="#111828" fill-opacity="1"><g transform="translate(323.017778, 225.3827)"><g><path d="M 4.109375 -7.4375 L 4.109375 -3.34375 C 4.109375 -2.269531 4.609375 -1.734375 5.609375 -1.734375 C 5.878906 -1.734375 6.179688 -1.78125 6.515625 -1.875 L 6.515625 -0.09375 C 6.109375 0.0507812 5.625 0.125 5.0625 0.125 C 4.019531 0.125 3.222656 -0.160156 2.671875 -0.734375 C 2.117188 -1.316406 1.84375 -2.148438 1.84375 -3.234375 L 1.84375 -7.4375 L 0.09375 -7.4375 L 0.09375 -9.125 L 1.84375 -9.125 L 1.84375 -11.359375 L 4.109375 -12.109375 L 4.109375 -9.125 L 6.53125 -9.125 L 6.53125 -7.4375 Z M 4.109375 -7.4375 "/></g></g></g><g fill="#111828" fill-opacity="1"><g transform="translate(329.870866, 225.3827)"><g><path d="M 9.96875 -9.125 L 9.96875 0 L 7.734375 0 L 7.734375 -1.46875 C 7.460938 -0.957031 7.066406 -0.5625 6.546875 -0.28125 C 6.023438 0 5.429688 0.140625 4.765625 0.140625 C 3.972656 0.140625 3.269531 -0.0507812 2.65625 -0.4375 C 2.039062 -0.820312 1.5625 -1.367188 1.21875 -2.078125 C 0.882812 -2.785156 0.71875 -3.613281 0.71875 -4.5625 C 0.71875 -5.5 0.890625 -6.332031 1.234375 -7.0625 C 1.578125 -7.789062 2.054688 -8.351562 2.671875 -8.75 C 3.285156 -9.15625 3.984375 -9.359375 4.765625 -9.359375 C 5.429688 -9.359375 6.023438 -9.21875 6.546875 -8.9375 C 7.066406 -8.65625 7.460938 -8.257812 7.734375 -7.75 L 7.734375 -9.125 Z M 5.390625 -1.625 C 6.140625 -1.625 6.71875 -1.882812 7.125 -2.40625 C 7.53125 -2.925781 7.734375 -3.65625 7.734375 -4.59375 C 7.734375 -5.550781 7.53125 -6.289062 7.125 -6.8125 C 6.71875 -7.332031 6.132812 -7.59375 5.375 -7.59375 C 4.625 -7.59375 4.039062 -7.320312 3.625 -6.78125 C 3.207031 -6.25 3 -5.507812 3 -4.5625 C 3 -3.613281 3.207031 -2.882812 3.625 -2.375 C 4.039062 -1.875 4.628906 -1.625 5.390625 -1.625 Z M 5.390625 -1.625 "/></g></g></g><g fill="#111828" fill-opacity="1"><g transform="translate(341.063634, 225.3827)"><g><path d="M 1.234375 0 L 1.234375 -13.3125 L 3.46875 -13.3125 L 3.46875 0 Z M 1.234375 0 "/></g></g></g><g fill="#111828" fill-opacity="1"><g transform="translate(228.541529, 246.382699)"><g><path d="M 5.75 0.15625 C 4.757812 0.15625 3.832031 0.0234375 2.96875 -0.234375 C 2.113281 -0.492188 1.382812 -0.875 0.78125 -1.375 L 1.578125 -3.078125 C 2.203125 -2.609375 2.851562 -2.257812 3.53125 -2.03125 C 4.21875 -1.8125 4.960938 -1.703125 5.765625 -1.703125 C 6.660156 -1.703125 7.347656 -1.859375 7.828125 -2.171875 C 8.316406 -2.484375 8.5625 -2.921875 8.5625 -3.484375 C 8.5625 -3.972656 8.335938 -4.34375 7.890625 -4.59375 C 7.441406 -4.851562 6.695312 -5.097656 5.65625 -5.328125 C 4.039062 -5.679688 2.863281 -6.132812 2.125 -6.6875 C 1.394531 -7.238281 1.03125 -8.046875 1.03125 -9.109375 C 1.03125 -9.867188 1.234375 -10.539062 1.640625 -11.125 C 2.054688 -11.71875 2.640625 -12.179688 3.390625 -12.515625 C 4.140625 -12.859375 5.007812 -13.03125 6 -13.03125 C 6.90625 -13.03125 7.765625 -12.894531 8.578125 -12.625 C 9.390625 -12.351562 10.054688 -11.976562 10.578125 -11.5 L 9.796875 -9.796875 C 8.648438 -10.710938 7.382812 -11.171875 6 -11.171875 C 5.164062 -11.171875 4.507812 -11 4.03125 -10.65625 C 3.550781 -10.3125 3.3125 -9.84375 3.3125 -9.25 C 3.3125 -8.75 3.523438 -8.363281 3.953125 -8.09375 C 4.378906 -7.832031 5.109375 -7.585938 6.140625 -7.359375 C 7.210938 -7.109375 8.085938 -6.832031 8.765625 -6.53125 C 9.441406 -6.238281 9.957031 -5.859375 10.3125 -5.390625 C 10.675781 -4.929688 10.859375 -4.351562 10.859375 -3.65625 C 10.859375 -2.882812 10.65625 -2.210938 10.25 -1.640625 C 9.84375 -1.066406 9.253906 -0.625 8.484375 -0.3125 C 7.710938 0 6.800781 0.15625 5.75 0.15625 Z M 5.75 0.15625 "/></g></g></g><g fill="#111828" fill-opacity="1"><g transform="translate(240.18635, 246.382699)"><g><path d="M 4.109375 -7.4375 L 4.109375 -3.34375 C 4.109375 -2.269531 4.609375 -1.734375 5.609375 -1.734375 C 5.878906 -1.734375 6.179688 -1.78125 6.515625 -1.875 L 6.515625 -0.09375 C 6.109375 0.0507812 5.625 0.125 5.0625 0.125 C 4.019531 0.125 3.222656 -0.160156 2.671875 -0.734375 C 2.117188 -1.316406 1.84375 -2.148438 1.84375 -3.234375 L 1.84375 -7.4375 L 0.09375 -7.4375 L 0.09375 -9.125 L 1.84375 -9.125 L 1.84375 -11.359375 L 4.109375 -12.109375 L 4.109375 -9.125 L 6.53125 -9.125 L 6.53125 -7.4375 Z M 4.109375 -7.4375 "/></g></g></g><g fill="#111828" fill-opacity="1"><g transform="translate(247.039438, 246.382699)"><g><path d="M 9.21875 -4.453125 L 2.921875 -4.453125 C 2.972656 -3.472656 3.21875 -2.75 3.65625 -2.28125 C 4.101562 -1.820312 4.757812 -1.59375 5.625 -1.59375 C 6.625 -1.59375 7.550781 -1.914062 8.40625 -2.5625 L 9.0625 -1.015625 C 8.625 -0.660156 8.085938 -0.378906 7.453125 -0.171875 C 6.828125 0.0351562 6.1875 0.140625 5.53125 0.140625 C 4.039062 0.140625 2.863281 -0.28125 2 -1.125 C 1.144531 -1.96875 0.71875 -3.125 0.71875 -4.59375 C 0.71875 -5.519531 0.90625 -6.34375 1.28125 -7.0625 C 1.65625 -7.789062 2.179688 -8.351562 2.859375 -8.75 C 3.535156 -9.15625 4.300781 -9.359375 5.15625 -9.359375 C 6.40625 -9.359375 7.394531 -8.953125 8.125 -8.140625 C 8.851562 -7.328125 9.21875 -6.210938 9.21875 -4.796875 Z M 5.203125 -7.734375 C 4.597656 -7.734375 4.101562 -7.554688 3.71875 -7.203125 C 3.34375 -6.847656 3.101562 -6.332031 3 -5.65625 L 7.25 -5.65625 C 7.175781 -6.34375 6.96875 -6.859375 6.625 -7.203125 C 6.28125 -7.554688 5.804688 -7.734375 5.203125 -7.734375 Z M 5.203125 -7.734375 "/></g></g></g><g fill="#111828" fill-opacity="1"><g transform="translate(256.948384, 246.382699)"><g><path d="M 13.5625 -9.125 L 15.765625 -9.125 L 12.1875 0 L 10.21875 0 L 7.953125 -5.984375 L 5.75 0 L 3.765625 0 L 0.1875 -9.125 L 2.5 -9.125 L 4.84375 -2.6875 L 7.21875 -9.125 L 8.84375 -9.125 L 11.203125 -2.640625 Z M 13.5625 -9.125 "/></g></g></g><g fill="#111828" fill-opacity="1"><g transform="translate(272.914814, 246.382699)"><g><path d="M 9.96875 -9.125 L 9.96875 0 L 7.734375 0 L 7.734375 -1.46875 C 7.460938 -0.957031 7.066406 -0.5625 6.546875 -0.28125 C 6.023438 0 5.429688 0.140625 4.765625 0.140625 C 3.972656 0.140625 3.269531 -0.0507812 2.65625 -0.4375 C 2.039062 -0.820312 1.5625 -1.367188 1.21875 -2.078125 C 0.882812 -2.785156 0.71875 -3.613281 0.71875 -4.5625 C 0.71875 -5.5 0.890625 -6.332031 1.234375 -7.0625 C 1.578125 -7.789062 2.054688 -8.351562 2.671875 -8.75 C 3.285156 -9.15625 3.984375 -9.359375 4.765625 -9.359375 C 5.429688 -9.359375 6.023438 -9.21875 6.546875 -8.9375 C 7.066406 -8.65625 7.460938 -8.257812 7.734375 -7.75 L 7.734375 -9.125 Z M 5.390625 -1.625 C 6.140625 -1.625 6.71875 -1.882812 7.125 -2.40625 C 7.53125 -2.925781 7.734375 -3.65625 7.734375 -4.59375 C 7.734375 -5.550781 7.53125 -6.289062 7.125 -6.8125 C 6.71875 -7.332031 6.132812 -7.59375 5.375 -7.59375 C 4.625 -7.59375 4.039062 -7.320312 3.625 -6.78125 C 3.207031 -6.25 3 -5.507812 3 -4.5625 C 3 -3.613281 3.207031 -2.882812 3.625 -2.375 C 4.039062 -1.875 4.628906 -1.625 5.390625 -1.625 Z M 5.390625 -1.625 "/></g></g></g><g fill="#111828" fill-opacity="1"><g transform="translate(284.107582, 246.382699)"><g><path d="M 6.140625 -9.34375 C 6.492188 -9.34375 6.796875 -9.296875 7.046875 -9.203125 L 7.03125 -7.140625 C 6.644531 -7.296875 6.25 -7.375 5.84375 -7.375 C 5.070312 -7.375 4.484375 -7.148438 4.078125 -6.703125 C 3.671875 -6.253906 3.46875 -5.664062 3.46875 -4.9375 L 3.46875 0 L 1.234375 0 L 1.234375 -6.546875 C 1.234375 -7.503906 1.179688 -8.363281 1.078125 -9.125 L 3.203125 -9.125 L 3.375 -7.515625 C 3.601562 -8.109375 3.960938 -8.5625 4.453125 -8.875 C 4.953125 -9.1875 5.515625 -9.34375 6.140625 -9.34375 Z M 6.140625 -9.34375 "/></g></g></g><g fill="#111828" fill-opacity="1"><g transform="translate(291.195731, 246.382699)"><g><path d="M 9.96875 -13.3125 L 9.96875 0 L 7.734375 0 L 7.734375 -1.46875 C 7.460938 -0.957031 7.066406 -0.5625 6.546875 -0.28125 C 6.023438 0 5.429688 0.140625 4.765625 0.140625 C 3.984375 0.140625 3.285156 -0.0546875 2.671875 -0.453125 C 2.054688 -0.847656 1.578125 -1.410156 1.234375 -2.140625 C 0.890625 -2.867188 0.71875 -3.703125 0.71875 -4.640625 C 0.71875 -5.585938 0.882812 -6.414062 1.21875 -7.125 C 1.5625 -7.832031 2.039062 -8.378906 2.65625 -8.765625 C 3.269531 -9.160156 3.972656 -9.359375 4.765625 -9.359375 C 5.421875 -9.359375 6.003906 -9.222656 6.515625 -8.953125 C 7.023438 -8.679688 7.421875 -8.300781 7.703125 -7.8125 L 7.703125 -13.3125 Z M 5.375 -1.625 C 6.113281 -1.625 6.691406 -1.882812 7.109375 -2.40625 C 7.523438 -2.925781 7.734375 -3.660156 7.734375 -4.609375 C 7.734375 -5.554688 7.53125 -6.289062 7.125 -6.8125 C 6.71875 -7.332031 6.140625 -7.59375 5.390625 -7.59375 C 4.628906 -7.59375 4.039062 -7.335938 3.625 -6.828125 C 3.207031 -6.316406 3 -5.585938 3 -4.640625 C 3 -3.691406 3.207031 -2.953125 3.625 -2.421875 C 4.039062 -1.890625 4.625 -1.625 5.375 -1.625 Z M 5.375 -1.625 "/></g></g></g><g fill="#111828" fill-opacity="1"><g transform="translate(302.388499, 246.382699)"><g><path d="M 4.578125 0.140625 C 2.921875 0.140625 1.601562 -0.242188 0.625 -1.015625 L 1.265625 -2.609375 C 2.242188 -1.878906 3.359375 -1.515625 4.609375 -1.515625 C 5.148438 -1.515625 5.566406 -1.601562 5.859375 -1.78125 C 6.160156 -1.96875 6.3125 -2.222656 6.3125 -2.546875 C 6.3125 -2.828125 6.207031 -3.046875 6 -3.203125 C 5.789062 -3.367188 5.441406 -3.515625 4.953125 -3.640625 L 3.4375 -3.984375 C 1.769531 -4.335938 0.9375 -5.1875 0.9375 -6.53125 C 0.9375 -7.082031 1.09375 -7.570312 1.40625 -8 C 1.71875 -8.425781 2.15625 -8.757812 2.71875 -9 C 3.289062 -9.238281 3.953125 -9.359375 4.703125 -9.359375 C 5.347656 -9.359375 5.972656 -9.257812 6.578125 -9.0625 C 7.179688 -8.863281 7.710938 -8.578125 8.171875 -8.203125 L 7.5 -6.671875 C 6.582031 -7.347656 5.644531 -7.6875 4.6875 -7.6875 C 4.164062 -7.6875 3.757812 -7.585938 3.46875 -7.390625 C 3.175781 -7.203125 3.03125 -6.9375 3.03125 -6.59375 C 3.03125 -6.332031 3.117188 -6.125 3.296875 -5.96875 C 3.472656 -5.8125 3.769531 -5.675781 4.1875 -5.5625 L 5.75 -5.21875 C 6.65625 -5.019531 7.316406 -4.707031 7.734375 -4.28125 C 8.148438 -3.851562 8.359375 -3.296875 8.359375 -2.609375 C 8.359375 -1.765625 8.019531 -1.09375 7.34375 -0.59375 C 6.664062 -0.101562 5.742188 0.140625 4.578125 0.140625 Z M 4.578125 0.140625 "/></g></g></g><g fill="#111828" fill-opacity="1"><g transform="translate(311.447596, 246.382699)"><g><path d="M 6.453125 -9.359375 C 8.628906 -9.359375 9.71875 -8.109375 9.71875 -5.609375 L 9.71875 0 L 7.46875 0 L 7.46875 -5.5 C 7.46875 -6.21875 7.328125 -6.742188 7.046875 -7.078125 C 6.773438 -7.410156 6.347656 -7.578125 5.765625 -7.578125 C 5.078125 -7.578125 4.519531 -7.351562 4.09375 -6.90625 C 3.675781 -6.46875 3.46875 -5.890625 3.46875 -5.171875 L 3.46875 0 L 1.234375 0 L 1.234375 -13.3125 L 3.46875 -13.3125 L 3.46875 -7.8125 C 3.78125 -8.300781 4.195312 -8.679688 4.71875 -8.953125 C 5.238281 -9.222656 5.816406 -9.359375 6.453125 -9.359375 Z M 6.453125 -9.359375 "/></g></g></g><g fill="#111828" fill-opacity="1"><g transform="translate(322.351057, 246.382699)"><g><path d="M 1.234375 0 L 1.234375 -9.125 L 3.46875 -9.125 L 3.46875 0 Z M 1.09375 -13.28125 L 3.609375 -13.28125 L 3.609375 -11.046875 L 1.09375 -11.046875 Z M 1.09375 -13.28125 "/></g></g></g><g fill="#111828" fill-opacity="1"><g transform="translate(327.070463, 246.382699)"><g><path d="M 6.4375 -9.359375 C 7.21875 -9.359375 7.910156 -9.15625 8.515625 -8.75 C 9.128906 -8.351562 9.609375 -7.789062 9.953125 -7.0625 C 10.296875 -6.332031 10.46875 -5.5 10.46875 -4.5625 C 10.46875 -3.613281 10.296875 -2.785156 9.953125 -2.078125 C 9.617188 -1.367188 9.144531 -0.820312 8.53125 -0.4375 C 7.925781 -0.0507812 7.226562 0.140625 6.4375 0.140625 C 5.769531 0.140625 5.175781 0 4.65625 -0.28125 C 4.144531 -0.5625 3.75 -0.957031 3.46875 -1.46875 L 3.46875 3.90625 L 1.234375 3.90625 L 1.234375 -6.546875 C 1.234375 -7.503906 1.179688 -8.363281 1.078125 -9.125 L 3.203125 -9.125 L 3.375 -7.5625 C 3.613281 -8.125 4.003906 -8.5625 4.546875 -8.875 C 5.097656 -9.195312 5.726562 -9.359375 6.4375 -9.359375 Z M 5.828125 -1.625 C 6.578125 -1.625 7.15625 -1.875 7.5625 -2.375 C 7.976562 -2.882812 8.1875 -3.613281 8.1875 -4.5625 C 8.1875 -5.507812 7.976562 -6.25 7.5625 -6.78125 C 7.15625 -7.320312 6.582031 -7.59375 5.84375 -7.59375 C 5.070312 -7.59375 4.476562 -7.332031 4.0625 -6.8125 C 3.65625 -6.289062 3.453125 -5.550781 3.453125 -4.59375 C 3.453125 -3.632812 3.65625 -2.898438 4.0625 -2.390625 C 4.476562 -1.878906 5.066406 -1.625 5.828125 -1.625 Z M 5.828125 -1.625 "/></g></g></g><g fill="#111828" fill-opacity="1"><g transform="translate(481.466343, 280.187058)"><g><path d="M 1.390625 -12.875 L 6.125 -12.875 C 8.238281 -12.875 9.875 -12.3125 11.03125 -11.1875 C 12.195312 -10.070312 12.78125 -8.492188 12.78125 -6.453125 C 12.78125 -4.398438 12.195312 -2.8125 11.03125 -1.6875 C 9.875 -0.5625 8.238281 0 6.125 0 L 1.390625 0 Z M 5.984375 -1.890625 C 8.953125 -1.890625 10.4375 -3.410156 10.4375 -6.453125 C 10.4375 -9.460938 8.953125 -10.96875 5.984375 -10.96875 L 3.71875 -10.96875 L 3.71875 -1.890625 Z M 5.984375 -1.890625 "/></g></g></g><g fill="#111828" fill-opacity="1"><g transform="translate(495.244846, 280.187058)"><g><path d="M 9.96875 -9.125 L 9.96875 0 L 7.734375 0 L 7.734375 -1.46875 C 7.460938 -0.957031 7.066406 -0.5625 6.546875 -0.28125 C 6.023438 0 5.429688 0.140625 4.765625 0.140625 C 3.972656 0.140625 3.269531 -0.0507812 2.65625 -0.4375 C 2.039062 -0.820312 1.5625 -1.367188 1.21875 -2.078125 C 0.882812 -2.785156 0.71875 -3.613281 0.71875 -4.5625 C 0.71875 -5.5 0.890625 -6.332031 1.234375 -7.0625 C 1.578125 -7.789062 2.054688 -8.351562 2.671875 -8.75 C 3.285156 -9.15625 3.984375 -9.359375 4.765625 -9.359375 C 5.429688 -9.359375 6.023438 -9.21875 6.546875 -8.9375 C 7.066406 -8.65625 7.460938 -8.257812 7.734375 -7.75 L 7.734375 -9.125 Z M 5.390625 -1.625 C 6.140625 -1.625 6.71875 -1.882812 7.125 -2.40625 C 7.53125 -2.925781 7.734375 -3.65625 7.734375 -4.59375 C 7.734375 -5.550781 7.53125 -6.289062 7.125 -6.8125 C 6.71875 -7.332031 6.132812 -7.59375 5.375 -7.59375 C 4.625 -7.59375 4.039062 -7.320312 3.625 -6.78125 C 3.207031 -6.25 3 -5.507812 3 -4.5625 C 3 -3.613281 3.207031 -2.882812 3.625 -2.375 C 4.039062 -1.875 4.628906 -1.625 5.390625 -1.625 Z M 5.390625 -1.625 "/></g></g></g><g fill="#111828" fill-opacity="1"><g transform="translate(506.437614, 280.187058)"><g><path d="M 4.109375 -7.4375 L 4.109375 -3.34375 C 4.109375 -2.269531 4.609375 -1.734375 5.609375 -1.734375 C 5.878906 -1.734375 6.179688 -1.78125 6.515625 -1.875 L 6.515625 -0.09375 C 6.109375 0.0507812 5.625 0.125 5.0625 0.125 C 4.019531 0.125 3.222656 -0.160156 2.671875 -0.734375 C 2.117188 -1.316406 1.84375 -2.148438 1.84375 -3.234375 L 1.84375 -7.4375 L 0.09375 -7.4375 L 0.09375 -9.125 L 1.84375 -9.125 L 1.84375 -11.359375 L 4.109375 -12.109375 L 4.109375 -9.125 L 6.53125 -9.125 L 6.53125 -7.4375 Z M 4.109375 -7.4375 "/></g></g></g><g fill="#111828" fill-opacity="1"><g transform="translate(513.290702, 280.187058)"><g><path d="M 9.96875 -9.125 L 9.96875 0 L 7.734375 0 L 7.734375 -1.46875 C 7.460938 -0.957031 7.066406 -0.5625 6.546875 -0.28125 C 6.023438 0 5.429688 0.140625 4.765625 0.140625 C 3.972656 0.140625 3.269531 -0.0507812 2.65625 -0.4375 C 2.039062 -0.820312 1.5625 -1.367188 1.21875 -2.078125 C 0.882812 -2.785156 0.71875 -3.613281 0.71875 -4.5625 C 0.71875 -5.5 0.890625 -6.332031 1.234375 -7.0625 C 1.578125 -7.789062 2.054688 -8.351562 2.671875 -8.75 C 3.285156 -9.15625 3.984375 -9.359375 4.765625 -9.359375 C 5.429688 -9.359375 6.023438 -9.21875 6.546875 -8.9375 C 7.066406 -8.65625 7.460938 -8.257812 7.734375 -7.75 L 7.734375 -9.125 Z M 5.390625 -1.625 C 6.140625 -1.625 6.71875 -1.882812 7.125 -2.40625 C 7.53125 -2.925781 7.734375 -3.65625 7.734375 -4.59375 C 7.734375 -5.550781 7.53125 -6.289062 7.125 -6.8125 C 6.71875 -7.332031 6.132812 -7.59375 5.375 -7.59375 C 4.625 -7.59375 4.039062 -7.320312 3.625 -6.78125 C 3.207031 -6.25 3 -5.507812 3 -4.5625 C 3 -3.613281 3.207031 -2.882812 3.625 -2.375 C 4.039062 -1.875 4.628906 -1.625 5.390625 -1.625 Z M 5.390625 -1.625 "/></g></g></g><g fill="#111828" fill-opacity="1"><g transform="translate(453.106969, 301.187057)"><g><path d="M 1.390625 -12.875 L 6.125 -12.875 C 8.238281 -12.875 9.875 -12.3125 11.03125 -11.1875 C 12.195312 -10.070312 12.78125 -8.492188 12.78125 -6.453125 C 12.78125 -4.398438 12.195312 -2.8125 11.03125 -1.6875 C 9.875 -0.5625 8.238281 0 6.125 0 L 1.390625 0 Z M 5.984375 -1.890625 C 8.953125 -1.890625 10.4375 -3.410156 10.4375 -6.453125 C 10.4375 -9.460938 8.953125 -10.96875 5.984375 -10.96875 L 3.71875 -10.96875 L 3.71875 -1.890625 Z M 5.984375 -1.890625 "/></g></g></g><g fill="#111828" fill-opacity="1"><g transform="translate(466.885472, 301.187057)"><g><path d="M 9.21875 -4.453125 L 2.921875 -4.453125 C 2.972656 -3.472656 3.21875 -2.75 3.65625 -2.28125 C 4.101562 -1.820312 4.757812 -1.59375 5.625 -1.59375 C 6.625 -1.59375 7.550781 -1.914062 8.40625 -2.5625 L 9.0625 -1.015625 C 8.625 -0.660156 8.085938 -0.378906 7.453125 -0.171875 C 6.828125 0.0351562 6.1875 0.140625 5.53125 0.140625 C 4.039062 0.140625 2.863281 -0.28125 2 -1.125 C 1.144531 -1.96875 0.71875 -3.125 0.71875 -4.59375 C 0.71875 -5.519531 0.90625 -6.34375 1.28125 -7.0625 C 1.65625 -7.789062 2.179688 -8.351562 2.859375 -8.75 C 3.535156 -9.15625 4.300781 -9.359375 5.15625 -9.359375 C 6.40625 -9.359375 7.394531 -8.953125 8.125 -8.140625 C 8.851562 -7.328125 9.21875 -6.210938 9.21875 -4.796875 Z M 5.203125 -7.734375 C 4.597656 -7.734375 4.101562 -7.554688 3.71875 -7.203125 C 3.34375 -6.847656 3.101562 -6.332031 3 -5.65625 L 7.25 -5.65625 C 7.175781 -6.34375 6.96875 -6.859375 6.625 -7.203125 C 6.28125 -7.554688 5.804688 -7.734375 5.203125 -7.734375 Z M 5.203125 -7.734375 "/></g></g></g><g fill="#111828" fill-opacity="1"><g transform="translate(476.794419, 301.187057)"><g><path d="M 4.578125 0.140625 C 2.921875 0.140625 1.601562 -0.242188 0.625 -1.015625 L 1.265625 -2.609375 C 2.242188 -1.878906 3.359375 -1.515625 4.609375 -1.515625 C 5.148438 -1.515625 5.566406 -1.601562 5.859375 -1.78125 C 6.160156 -1.96875 6.3125 -2.222656 6.3125 -2.546875 C 6.3125 -2.828125 6.207031 -3.046875 6 -3.203125 C 5.789062 -3.367188 5.441406 -3.515625 4.953125 -3.640625 L 3.4375 -3.984375 C 1.769531 -4.335938 0.9375 -5.1875 0.9375 -6.53125 C 0.9375 -7.082031 1.09375 -7.570312 1.40625 -8 C 1.71875 -8.425781 2.15625 -8.757812 2.71875 -9 C 3.289062 -9.238281 3.953125 -9.359375 4.703125 -9.359375 C 5.347656 -9.359375 5.972656 -9.257812 6.578125 -9.0625 C 7.179688 -8.863281 7.710938 -8.578125 8.171875 -8.203125 L 7.5 -6.671875 C 6.582031 -7.347656 5.644531 -7.6875 4.6875 -7.6875 C 4.164062 -7.6875 3.757812 -7.585938 3.46875 -7.390625 C 3.175781 -7.203125 3.03125 -6.9375 3.03125 -6.59375 C 3.03125 -6.332031 3.117188 -6.125 3.296875 -5.96875 C 3.472656 -5.8125 3.769531 -5.675781 4.1875 -5.5625 L 5.75 -5.21875 C 6.65625 -5.019531 7.316406 -4.707031 7.734375 -4.28125 C 8.148438 -3.851562 8.359375 -3.296875 8.359375 -2.609375 C 8.359375 -1.765625 8.019531 -1.09375 7.34375 -0.59375 C 6.664062 -0.101562 5.742188 0.140625 4.578125 0.140625 Z M 4.578125 0.140625 "/></g></g></g><g fill="#111828" fill-opacity="1"><g transform="translate(485.853516, 301.187057)"><g><path d="M 4.109375 -7.4375 L 4.109375 -3.34375 C 4.109375 -2.269531 4.609375 -1.734375 5.609375 -1.734375 C 5.878906 -1.734375 6.179688 -1.78125 6.515625 -1.875 L 6.515625 -0.09375 C 6.109375 0.0507812 5.625 0.125 5.0625 0.125 C 4.019531 0.125 3.222656 -0.160156 2.671875 -0.734375 C 2.117188 -1.316406 1.84375 -2.148438 1.84375 -3.234375 L 1.84375 -7.4375 L 0.09375 -7.4375 L 0.09375 -9.125 L 1.84375 -9.125 L 1.84375 -11.359375 L 4.109375 -12.109375 L 4.109375 -9.125 L 6.53125 -9.125 L 6.53125 -7.4375 Z M 4.109375 -7.4375 "/></g></g></g><g fill="#111828" fill-opacity="1"><g transform="translate(492.706604, 301.187057)"><g><path d="M 6.140625 -9.34375 C 6.492188 -9.34375 6.796875 -9.296875 7.046875 -9.203125 L 7.03125 -7.140625 C 6.644531 -7.296875 6.25 -7.375 5.84375 -7.375 C 5.070312 -7.375 4.484375 -7.148438 4.078125 -6.703125 C 3.671875 -6.253906 3.46875 -5.664062 3.46875 -4.9375 L 3.46875 0 L 1.234375 0 L 1.234375 -6.546875 C 1.234375 -7.503906 1.179688 -8.363281 1.078125 -9.125 L 3.203125 -9.125 L 3.375 -7.515625 C 3.601562 -8.109375 3.960938 -8.5625 4.453125 -8.875 C 4.953125 -9.1875 5.515625 -9.34375 6.140625 -9.34375 Z M 6.140625 -9.34375 "/></g></g></g><g fill="#111828" fill-opacity="1"><g transform="translate(499.794754, 301.187057)"><g><path d="M 9.546875 -9.125 L 9.546875 0 L 7.34375 0 L 7.34375 -1.40625 C 7.050781 -0.90625 6.660156 -0.519531 6.171875 -0.25 C 5.691406 0.0078125 5.140625 0.140625 4.515625 0.140625 C 2.285156 0.140625 1.171875 -1.109375 1.171875 -3.609375 L 1.171875 -9.125 L 3.421875 -9.125 L 3.421875 -3.59375 C 3.421875 -2.9375 3.554688 -2.445312 3.828125 -2.125 C 4.097656 -1.8125 4.515625 -1.65625 5.078125 -1.65625 C 5.742188 -1.65625 6.273438 -1.875 6.671875 -2.3125 C 7.066406 -2.75 7.265625 -3.328125 7.265625 -4.046875 L 7.265625 -9.125 Z M 9.546875 -9.125 "/></g></g></g><g fill="#111828" fill-opacity="1"><g transform="translate(510.571643, 301.187057)"><g><path d="M 5.375 0.140625 C 4.414062 0.140625 3.585938 -0.0507812 2.890625 -0.4375 C 2.191406 -0.820312 1.65625 -1.363281 1.28125 -2.0625 C 0.90625 -2.769531 0.71875 -3.601562 0.71875 -4.5625 C 0.71875 -5.507812 0.910156 -6.34375 1.296875 -7.0625 C 1.691406 -7.789062 2.25 -8.351562 2.96875 -8.75 C 3.6875 -9.15625 4.515625 -9.359375 5.453125 -9.359375 C 6.109375 -9.359375 6.738281 -9.253906 7.34375 -9.046875 C 7.957031 -8.847656 8.441406 -8.566406 8.796875 -8.203125 L 8.171875 -6.609375 C 7.785156 -6.929688 7.375 -7.171875 6.9375 -7.328125 C 6.507812 -7.492188 6.082031 -7.578125 5.65625 -7.578125 C 4.832031 -7.578125 4.191406 -7.316406 3.734375 -6.796875 C 3.285156 -6.285156 3.0625 -5.550781 3.0625 -4.59375 C 3.0625 -3.625 3.285156 -2.882812 3.734375 -2.375 C 4.179688 -1.875 4.820312 -1.625 5.65625 -1.625 C 6.082031 -1.625 6.507812 -1.707031 6.9375 -1.875 C 7.375 -2.050781 7.785156 -2.296875 8.171875 -2.609375 L 8.796875 -1.015625 C 8.410156 -0.648438 7.910156 -0.363281 7.296875 -0.15625 C 6.679688 0.0390625 6.039062 0.140625 5.375 0.140625 Z M 5.375 0.140625 "/></g></g></g><g fill="#111828" fill-opacity="1"><g transform="translate(519.666903, 301.187057)"><g><path d="M 4.109375 -7.4375 L 4.109375 -3.34375 C 4.109375 -2.269531 4.609375 -1.734375 5.609375 -1.734375 C 5.878906 -1.734375 6.179688 -1.78125 6.515625 -1.875 L 6.515625 -0.09375 C 6.109375 0.0507812 5.625 0.125 5.0625 0.125 C 4.019531 0.125 3.222656 -0.160156 2.671875 -0.734375 C 2.117188 -1.316406 1.84375 -2.148438 1.84375 -3.234375 L 1.84375 -7.4375 L 0.09375 -7.4375 L 0.09375 -9.125 L 1.84375 -9.125 L 1.84375 -11.359375 L 4.109375 -12.109375 L 4.109375 -9.125 L 6.53125 -9.125 L 6.53125 -7.4375 Z M 4.109375 -7.4375 "/></g></g></g><g fill="#111828" fill-opacity="1"><g transform="translate(526.519991, 301.187057)"><g><path d="M 1.234375 0 L 1.234375 -9.125 L 3.46875 -9.125 L 3.46875 0 Z M 1.09375 -13.28125 L 3.609375 -13.28125 L 3.609375 -11.046875 L 1.09375 -11.046875 Z M 1.09375 -13.28125 "/></g></g></g><g fill="#111828" fill-opacity="1"><g transform="translate(531.239397, 301.187057)"><g><path d="M 5.375 0.140625 C 4.445312 0.140625 3.628906 -0.0507812 2.921875 -0.4375 C 2.210938 -0.820312 1.664062 -1.367188 1.28125 -2.078125 C 0.90625 -2.796875 0.71875 -3.640625 0.71875 -4.609375 C 0.71875 -5.578125 0.90625 -6.414062 1.28125 -7.125 C 1.664062 -7.84375 2.210938 -8.394531 2.921875 -8.78125 C 3.628906 -9.164062 4.445312 -9.359375 5.375 -9.359375 C 6.289062 -9.359375 7.097656 -9.164062 7.796875 -8.78125 C 8.492188 -8.394531 9.03125 -7.84375 9.40625 -7.125 C 9.789062 -6.414062 9.984375 -5.578125 9.984375 -4.609375 C 9.984375 -3.640625 9.789062 -2.796875 9.40625 -2.078125 C 9.03125 -1.367188 8.492188 -0.820312 7.796875 -0.4375 C 7.097656 -0.0507812 6.289062 0.140625 5.375 0.140625 Z M 5.34375 -1.625 C 6.125 -1.625 6.710938 -1.875 7.109375 -2.375 C 7.515625 -2.875 7.71875 -3.617188 7.71875 -4.609375 C 7.71875 -5.585938 7.507812 -6.332031 7.09375 -6.84375 C 6.6875 -7.351562 6.113281 -7.609375 5.375 -7.609375 C 4.613281 -7.609375 4.023438 -7.351562 3.609375 -6.84375 C 3.203125 -6.332031 3 -5.585938 3 -4.609375 C 3 -3.617188 3.203125 -2.875 3.609375 -2.375 C 4.015625 -1.875 4.59375 -1.625 5.34375 -1.625 Z M 5.34375 -1.625 "/></g></g></g><g fill="#111828" fill-opacity="1"><g transform="translate(541.94396, 301.187057)"><g><path d="M 6.453125 -9.359375 C 8.628906 -9.359375 9.71875 -8.109375 9.71875 -5.609375 L 9.71875 0 L 7.46875 0 L 7.46875 -5.5 C 7.46875 -6.21875 7.328125 -6.742188 7.046875 -7.078125 C 6.773438 -7.410156 6.347656 -7.578125 5.765625 -7.578125 C 5.078125 -7.578125 4.519531 -7.351562 4.09375 -6.90625 C 3.675781 -6.46875 3.46875 -5.890625 3.46875 -5.171875 L 3.46875 0 L 1.234375 0 L 1.234375 -6.546875 C 1.234375 -7.503906 1.179688 -8.363281 1.078125 -9.125 L 3.203125 -9.125 L 3.359375 -7.625 C 3.671875 -8.175781 4.09375 -8.601562 4.625 -8.90625 C 5.164062 -9.207031 5.773438 -9.359375 6.453125 -9.359375 Z M 6.453125 -9.359375 "/></g></g></g><g fill="#111828" fill-opacity="1"><g transform="translate(330.783531, 446.815009)"><g><path d="M 1.390625 0 L 1.390625 -12.875 L 3.71875 -12.875 L 3.71875 0 Z M 1.390625 0 "/></g></g></g><g fill="#111828" fill-opacity="1"><g transform="translate(335.900745, 446.815009)"><g><path d="M 6.453125 -9.359375 C 8.628906 -9.359375 9.71875 -8.109375 9.71875 -5.609375 L 9.71875 0 L 7.46875 0 L 7.46875 -5.5 C 7.46875 -6.21875 7.328125 -6.742188 7.046875 -7.078125 C 6.773438 -7.410156 6.347656 -7.578125 5.765625 -7.578125 C 5.078125 -7.578125 4.519531 -7.351562 4.09375 -6.90625 C 3.675781 -6.46875 3.46875 -5.890625 3.46875 -5.171875 L 3.46875 0 L 1.234375 0 L 1.234375 -6.546875 C 1.234375 -7.503906 1.179688 -8.363281 1.078125 -9.125 L 3.203125 -9.125 L 3.359375 -7.625 C 3.671875 -8.175781 4.09375 -8.601562 4.625 -8.90625 C 5.164062 -9.207031 5.773438 -9.359375 6.453125 -9.359375 Z M 6.453125 -9.359375 "/></g></g></g><g fill="#111828" fill-opacity="1"><g transform="translate(346.804206, 446.815009)"><g><path d="M 6.453125 -9.359375 C 8.628906 -9.359375 9.71875 -8.109375 9.71875 -5.609375 L 9.71875 0 L 7.46875 0 L 7.46875 -5.5 C 7.46875 -6.21875 7.328125 -6.742188 7.046875 -7.078125 C 6.773438 -7.410156 6.347656 -7.578125 5.765625 -7.578125 C 5.078125 -7.578125 4.519531 -7.351562 4.09375 -6.90625 C 3.675781 -6.46875 3.46875 -5.890625 3.46875 -5.171875 L 3.46875 0 L 1.234375 0 L 1.234375 -6.546875 C 1.234375 -7.503906 1.179688 -8.363281 1.078125 -9.125 L 3.203125 -9.125 L 3.359375 -7.625 C 3.671875 -8.175781 4.09375 -8.601562 4.625 -8.90625 C 5.164062 -9.207031 5.773438 -9.359375 6.453125 -9.359375 Z M 6.453125 -9.359375 "/></g></g></g><g fill="#111828" fill-opacity="1"><g transform="translate(357.707667, 446.815009)"><g><path d="M 5.375 0.140625 C 4.445312 0.140625 3.628906 -0.0507812 2.921875 -0.4375 C 2.210938 -0.820312 1.664062 -1.367188 1.28125 -2.078125 C 0.90625 -2.796875 0.71875 -3.640625 0.71875 -4.609375 C 0.71875 -5.578125 0.90625 -6.414062 1.28125 -7.125 C 1.664062 -7.84375 2.210938 -8.394531 2.921875 -8.78125 C 3.628906 -9.164062 4.445312 -9.359375 5.375 -9.359375 C 6.289062 -9.359375 7.097656 -9.164062 7.796875 -8.78125 C 8.492188 -8.394531 9.03125 -7.84375 9.40625 -7.125 C 9.789062 -6.414062 9.984375 -5.578125 9.984375 -4.609375 C 9.984375 -3.640625 9.789062 -2.796875 9.40625 -2.078125 C 9.03125 -1.367188 8.492188 -0.820312 7.796875 -0.4375 C 7.097656 -0.0507812 6.289062 0.140625 5.375 0.140625 Z M 5.34375 -1.625 C 6.125 -1.625 6.710938 -1.875 7.109375 -2.375 C 7.515625 -2.875 7.71875 -3.617188 7.71875 -4.609375 C 7.71875 -5.585938 7.507812 -6.332031 7.09375 -6.84375 C 6.6875 -7.351562 6.113281 -7.609375 5.375 -7.609375 C 4.613281 -7.609375 4.023438 -7.351562 3.609375 -6.84375 C 3.203125 -6.332031 3 -5.585938 3 -4.609375 C 3 -3.617188 3.203125 -2.875 3.609375 -2.375 C 4.015625 -1.875 4.59375 -1.625 5.34375 -1.625 Z M 5.34375 -1.625 "/></g></g></g><g fill="#111828" fill-opacity="1"><g transform="translate(368.412229, 446.815009)"><g><path d="M 7.625 -9.109375 L 9.875 -9.109375 L 5.875 0 L 3.90625 0 L -0.03125 -9.109375 L 2.328125 -9.109375 L 4.953125 -2.5625 Z M 7.625 -9.109375 "/></g></g></g><g fill="#111828" fill-opacity="1"><g transform="translate(378.230768, 446.815009)"><g><path d="M 9.96875 -9.125 L 9.96875 0 L 7.734375 0 L 7.734375 -1.46875 C 7.460938 -0.957031 7.066406 -0.5625 6.546875 -0.28125 C 6.023438 0 5.429688 0.140625 4.765625 0.140625 C 3.972656 0.140625 3.269531 -0.0507812 2.65625 -0.4375 C 2.039062 -0.820312 1.5625 -1.367188 1.21875 -2.078125 C 0.882812 -2.785156 0.71875 -3.613281 0.71875 -4.5625 C 0.71875 -5.5 0.890625 -6.332031 1.234375 -7.0625 C 1.578125 -7.789062 2.054688 -8.351562 2.671875 -8.75 C 3.285156 -9.15625 3.984375 -9.359375 4.765625 -9.359375 C 5.429688 -9.359375 6.023438 -9.21875 6.546875 -8.9375 C 7.066406 -8.65625 7.460938 -8.257812 7.734375 -7.75 L 7.734375 -9.125 Z M 5.390625 -1.625 C 6.140625 -1.625 6.71875 -1.882812 7.125 -2.40625 C 7.53125 -2.925781 7.734375 -3.65625 7.734375 -4.59375 C 7.734375 -5.550781 7.53125 -6.289062 7.125 -6.8125 C 6.71875 -7.332031 6.132812 -7.59375 5.375 -7.59375 C 4.625 -7.59375 4.039062 -7.320312 3.625 -6.78125 C 3.207031 -6.25 3 -5.507812 3 -4.5625 C 3 -3.613281 3.207031 -2.882812 3.625 -2.375 C 4.039062 -1.875 4.628906 -1.625 5.390625 -1.625 Z M 5.390625 -1.625 "/></g></g></g><g fill="#111828" fill-opacity="1"><g transform="translate(389.423535, 446.815009)"><g><path d="M 4.109375 -7.4375 L 4.109375 -3.34375 C 4.109375 -2.269531 4.609375 -1.734375 5.609375 -1.734375 C 5.878906 -1.734375 6.179688 -1.78125 6.515625 -1.875 L 6.515625 -0.09375 C 6.109375 0.0507812 5.625 0.125 5.0625 0.125 C 4.019531 0.125 3.222656 -0.160156 2.671875 -0.734375 C 2.117188 -1.316406 1.84375 -2.148438 1.84375 -3.234375 L 1.84375 -7.4375 L 0.09375 -7.4375 L 0.09375 -9.125 L 1.84375 -9.125 L 1.84375 -11.359375 L 4.109375 -12.109375 L 4.109375 -9.125 L 6.53125 -9.125 L 6.53125 -7.4375 Z M 4.109375 -7.4375 "/></g></g></g><g fill="#111828" fill-opacity="1"><g transform="translate(396.276623, 446.815009)"><g><path d="M 1.234375 0 L 1.234375 -9.125 L 3.46875 -9.125 L 3.46875 0 Z M 1.09375 -13.28125 L 3.609375 -13.28125 L 3.609375 -11.046875 L 1.09375 -11.046875 Z M 1.09375 -13.28125 "/></g></g></g><g fill="#111828" fill-opacity="1"><g transform="translate(400.996029, 446.815009)"><g><path d="M 7.625 -9.109375 L 9.875 -9.109375 L 5.875 0 L 3.90625 0 L -0.03125 -9.109375 L 2.328125 -9.109375 L 4.953125 -2.5625 Z M 7.625 -9.109375 "/></g></g></g><g fill="#111828" fill-opacity="1"><g transform="translate(410.814568, 446.815009)"><g><path d="M 9.21875 -4.453125 L 2.921875 -4.453125 C 2.972656 -3.472656 3.21875 -2.75 3.65625 -2.28125 C 4.101562 -1.820312 4.757812 -1.59375 5.625 -1.59375 C 6.625 -1.59375 7.550781 -1.914062 8.40625 -2.5625 L 9.0625 -1.015625 C 8.625 -0.660156 8.085938 -0.378906 7.453125 -0.171875 C 6.828125 0.0351562 6.1875 0.140625 5.53125 0.140625 C 4.039062 0.140625 2.863281 -0.28125 2 -1.125 C 1.144531 -1.96875 0.71875 -3.125 0.71875 -4.59375 C 0.71875 -5.519531 0.90625 -6.34375 1.28125 -7.0625 C 1.65625 -7.789062 2.179688 -8.351562 2.859375 -8.75 C 3.535156 -9.15625 4.300781 -9.359375 5.15625 -9.359375 C 6.40625 -9.359375 7.394531 -8.953125 8.125 -8.140625 C 8.851562 -7.328125 9.21875 -6.210938 9.21875 -4.796875 Z M 5.203125 -7.734375 C 4.597656 -7.734375 4.101562 -7.554688 3.71875 -7.203125 C 3.34375 -6.847656 3.101562 -6.332031 3 -5.65625 L 7.25 -5.65625 C 7.175781 -6.34375 6.96875 -6.859375 6.625 -7.203125 C 6.28125 -7.554688 5.804688 -7.734375 5.203125 -7.734375 Z M 5.203125 -7.734375 "/></g></g></g><g fill="#111828" fill-opacity="1"><g transform="translate(335.705406, 467.815009)"><g><path d="M 5.75 0.15625 C 4.757812 0.15625 3.832031 0.0234375 2.96875 -0.234375 C 2.113281 -0.492188 1.382812 -0.875 0.78125 -1.375 L 1.578125 -3.078125 C 2.203125 -2.609375 2.851562 -2.257812 3.53125 -2.03125 C 4.21875 -1.8125 4.960938 -1.703125 5.765625 -1.703125 C 6.660156 -1.703125 7.347656 -1.859375 7.828125 -2.171875 C 8.316406 -2.484375 8.5625 -2.921875 8.5625 -3.484375 C 8.5625 -3.972656 8.335938 -4.34375 7.890625 -4.59375 C 7.441406 -4.851562 6.695312 -5.097656 5.65625 -5.328125 C 4.039062 -5.679688 2.863281 -6.132812 2.125 -6.6875 C 1.394531 -7.238281 1.03125 -8.046875 1.03125 -9.109375 C 1.03125 -9.867188 1.234375 -10.539062 1.640625 -11.125 C 2.054688 -11.71875 2.640625 -12.179688 3.390625 -12.515625 C 4.140625 -12.859375 5.007812 -13.03125 6 -13.03125 C 6.90625 -13.03125 7.765625 -12.894531 8.578125 -12.625 C 9.390625 -12.351562 10.054688 -11.976562 10.578125 -11.5 L 9.796875 -9.796875 C 8.648438 -10.710938 7.382812 -11.171875 6 -11.171875 C 5.164062 -11.171875 4.507812 -11 4.03125 -10.65625 C 3.550781 -10.3125 3.3125 -9.84375 3.3125 -9.25 C 3.3125 -8.75 3.523438 -8.363281 3.953125 -8.09375 C 4.378906 -7.832031 5.109375 -7.585938 6.140625 -7.359375 C 7.210938 -7.109375 8.085938 -6.832031 8.765625 -6.53125 C 9.441406 -6.238281 9.957031 -5.859375 10.3125 -5.390625 C 10.675781 -4.929688 10.859375 -4.351562 10.859375 -3.65625 C 10.859375 -2.882812 10.65625 -2.210938 10.25 -1.640625 C 9.84375 -1.066406 9.253906 -0.625 8.484375 -0.3125 C 7.710938 0 6.800781 0.15625 5.75 0.15625 Z M 5.75 0.15625 "/></g></g></g><g fill="#111828" fill-opacity="1"><g transform="translate(347.350226, 467.815009)"><g><path d="M 5.375 0.140625 C 4.445312 0.140625 3.628906 -0.0507812 2.921875 -0.4375 C 2.210938 -0.820312 1.664062 -1.367188 1.28125 -2.078125 C 0.90625 -2.796875 0.71875 -3.640625 0.71875 -4.609375 C 0.71875 -5.578125 0.90625 -6.414062 1.28125 -7.125 C 1.664062 -7.84375 2.210938 -8.394531 2.921875 -8.78125 C 3.628906 -9.164062 4.445312 -9.359375 5.375 -9.359375 C 6.289062 -9.359375 7.097656 -9.164062 7.796875 -8.78125 C 8.492188 -8.394531 9.03125 -7.84375 9.40625 -7.125 C 9.789062 -6.414062 9.984375 -5.578125 9.984375 -4.609375 C 9.984375 -3.640625 9.789062 -2.796875 9.40625 -2.078125 C 9.03125 -1.367188 8.492188 -0.820312 7.796875 -0.4375 C 7.097656 -0.0507812 6.289062 0.140625 5.375 0.140625 Z M 5.34375 -1.625 C 6.125 -1.625 6.710938 -1.875 7.109375 -2.375 C 7.515625 -2.875 7.71875 -3.617188 7.71875 -4.609375 C 7.71875 -5.585938 7.507812 -6.332031 7.09375 -6.84375 C 6.6875 -7.351562 6.113281 -7.609375 5.375 -7.609375 C 4.613281 -7.609375 4.023438 -7.351562 3.609375 -6.84375 C 3.203125 -6.332031 3 -5.585938 3 -4.609375 C 3 -3.617188 3.203125 -2.875 3.609375 -2.375 C 4.015625 -1.875 4.59375 -1.625 5.34375 -1.625 Z M 5.34375 -1.625 "/></g></g></g><g fill="#111828" fill-opacity="1"><g transform="translate(358.054789, 467.815009)"><g><path d="M 1.234375 0 L 1.234375 -13.3125 L 3.46875 -13.3125 L 3.46875 0 Z M 1.234375 0 "/></g></g></g><g fill="#111828" fill-opacity="1"><g transform="translate(362.774195, 467.815009)"><g><path d="M 9.546875 -9.125 L 9.546875 0 L 7.34375 0 L 7.34375 -1.40625 C 7.050781 -0.90625 6.660156 -0.519531 6.171875 -0.25 C 5.691406 0.0078125 5.140625 0.140625 4.515625 0.140625 C 2.285156 0.140625 1.171875 -1.109375 1.171875 -3.609375 L 1.171875 -9.125 L 3.421875 -9.125 L 3.421875 -3.59375 C 3.421875 -2.9375 3.554688 -2.445312 3.828125 -2.125 C 4.097656 -1.8125 4.515625 -1.65625 5.078125 -1.65625 C 5.742188 -1.65625 6.273438 -1.875 6.671875 -2.3125 C 7.066406 -2.75 7.265625 -3.328125 7.265625 -4.046875 L 7.265625 -9.125 Z M 9.546875 -9.125 "/></g></g></g><g fill="#111828" fill-opacity="1"><g transform="translate(373.551084, 467.815009)"><g><path d="M 4.109375 -7.4375 L 4.109375 -3.34375 C 4.109375 -2.269531 4.609375 -1.734375 5.609375 -1.734375 C 5.878906 -1.734375 6.179688 -1.78125 6.515625 -1.875 L 6.515625 -0.09375 C 6.109375 0.0507812 5.625 0.125 5.0625 0.125 C 4.019531 0.125 3.222656 -0.160156 2.671875 -0.734375 C 2.117188 -1.316406 1.84375 -2.148438 1.84375 -3.234375 L 1.84375 -7.4375 L 0.09375 -7.4375 L 0.09375 -9.125 L 1.84375 -9.125 L 1.84375 -11.359375 L 4.109375 -12.109375 L 4.109375 -9.125 L 6.53125 -9.125 L 6.53125 -7.4375 Z M 4.109375 -7.4375 "/></g></g></g><g fill="#111828" fill-opacity="1"><g transform="translate(380.404172, 467.815009)"><g><path d="M 1.234375 0 L 1.234375 -9.125 L 3.46875 -9.125 L 3.46875 0 Z M 1.09375 -13.28125 L 3.609375 -13.28125 L 3.609375 -11.046875 L 1.09375 -11.046875 Z M 1.09375 -13.28125 "/></g></g></g><g fill="#111828" fill-opacity="1"><g transform="translate(385.123578, 467.815009)"><g><path d="M 5.375 0.140625 C 4.445312 0.140625 3.628906 -0.0507812 2.921875 -0.4375 C 2.210938 -0.820312 1.664062 -1.367188 1.28125 -2.078125 C 0.90625 -2.796875 0.71875 -3.640625 0.71875 -4.609375 C 0.71875 -5.578125 0.90625 -6.414062 1.28125 -7.125 C 1.664062 -7.84375 2.210938 -8.394531 2.921875 -8.78125 C 3.628906 -9.164062 4.445312 -9.359375 5.375 -9.359375 C 6.289062 -9.359375 7.097656 -9.164062 7.796875 -8.78125 C 8.492188 -8.394531 9.03125 -7.84375 9.40625 -7.125 C 9.789062 -6.414062 9.984375 -5.578125 9.984375 -4.609375 C 9.984375 -3.640625 9.789062 -2.796875 9.40625 -2.078125 C 9.03125 -1.367188 8.492188 -0.820312 7.796875 -0.4375 C 7.097656 -0.0507812 6.289062 0.140625 5.375 0.140625 Z M 5.34375 -1.625 C 6.125 -1.625 6.710938 -1.875 7.109375 -2.375 C 7.515625 -2.875 7.71875 -3.617188 7.71875 -4.609375 C 7.71875 -5.585938 7.507812 -6.332031 7.09375 -6.84375 C 6.6875 -7.351562 6.113281 -7.609375 5.375 -7.609375 C 4.613281 -7.609375 4.023438 -7.351562 3.609375 -6.84375 C 3.203125 -6.332031 3 -5.585938 3 -4.609375 C 3 -3.617188 3.203125 -2.875 3.609375 -2.375 C 4.015625 -1.875 4.59375 -1.625 5.34375 -1.625 Z M 5.34375 -1.625 "/></g></g></g><g fill="#111828" fill-opacity="1"><g transform="translate(395.828141, 467.815009)"><g><path d="M 6.453125 -9.359375 C 8.628906 -9.359375 9.71875 -8.109375 9.71875 -5.609375 L 9.71875 0 L 7.46875 0 L 7.46875 -5.5 C 7.46875 -6.21875 7.328125 -6.742188 7.046875 -7.078125 C 6.773438 -7.410156 6.347656 -7.578125 5.765625 -7.578125 C 5.078125 -7.578125 4.519531 -7.351562 4.09375 -6.90625 C 3.675781 -6.46875 3.46875 -5.890625 3.46875 -5.171875 L 3.46875 0 L 1.234375 0 L 1.234375 -6.546875 C 1.234375 -7.503906 1.179688 -8.363281 1.078125 -9.125 L 3.203125 -9.125 L 3.359375 -7.625 C 3.671875 -8.175781 4.09375 -8.601562 4.625 -8.90625 C 5.164062 -9.207031 5.773438 -9.359375 6.453125 -9.359375 Z M 6.453125 -9.359375 "/></g></g></g><g fill="#111828" fill-opacity="1"><g transform="translate(406.731602, 467.815009)"><g><path d="M 4.578125 0.140625 C 2.921875 0.140625 1.601562 -0.242188 0.625 -1.015625 L 1.265625 -2.609375 C 2.242188 -1.878906 3.359375 -1.515625 4.609375 -1.515625 C 5.148438 -1.515625 5.566406 -1.601562 5.859375 -1.78125 C 6.160156 -1.96875 6.3125 -2.222656 6.3125 -2.546875 C 6.3125 -2.828125 6.207031 -3.046875 6 -3.203125 C 5.789062 -3.367188 5.441406 -3.515625 4.953125 -3.640625 L 3.4375 -3.984375 C 1.769531 -4.335938 0.9375 -5.1875 0.9375 -6.53125 C 0.9375 -7.082031 1.09375 -7.570312 1.40625 -8 C 1.71875 -8.425781 2.15625 -8.757812 2.71875 -9 C 3.289062 -9.238281 3.953125 -9.359375 4.703125 -9.359375 C 5.347656 -9.359375 5.972656 -9.257812 6.578125 -9.0625 C 7.179688 -8.863281 7.710938 -8.578125 8.171875 -8.203125 L 7.5 -6.671875 C 6.582031 -7.347656 5.644531 -7.6875 4.6875 -7.6875 C 4.164062 -7.6875 3.757812 -7.585938 3.46875 -7.390625 C 3.175781 -7.203125 3.03125 -6.9375 3.03125 -6.59375 C 3.03125 -6.332031 3.117188 -6.125 3.296875 -5.96875 C 3.472656 -5.8125 3.769531 -5.675781 4.1875 -5.5625 L 5.75 -5.21875 C 6.65625 -5.019531 7.316406 -4.707031 7.734375 -4.28125 C 8.148438 -3.851562 8.359375 -3.296875 8.359375 -2.609375 C 8.359375 -1.765625 8.019531 -1.09375 7.34375 -0.59375 C 6.664062 -0.101562 5.742188 0.140625 4.578125 0.140625 Z M 4.578125 0.140625 "/></g></g></g></svg>